<?xml version="1.0" standalone="no"?>
<!DOCTYPE svg PUBLIC "-//W3C//DTD SVG 20010904//EN"
 "http://www.w3.org/TR/2001/REC-SVG-20010904/DTD/svg10.dtd">
<svg version="1.0" xmlns="http://www.w3.org/2000/svg"
 width="1024.000000pt" height="1024.000000pt" viewBox="0 0 1024.000000 1024.000000"
 preserveAspectRatio="xMidYMid meet">

<g transform="translate(0.000000,1024.000000) scale(0.100000,-0.100000)"
fill="#000000" stroke="none">
<path d="M3940 8435 c-281 -15 -727 -36 -1300 -61 -296 -12 -382 -19 -409 -32
-23 -10 -103 -99 -250 -276 -298 -358 -319 -386 -326 -416 -3 -14 12 -309 34
-655 22 -347 54 -859 71 -1140 16 -280 33 -526 36 -545 8 -45 70 -106 116
-113 18 -2 138 -1 267 4 128 5 236 8 238 6 2 -3 -13 -44 -33 -93 -104 -253
-164 -594 -164 -942 0 -113 0 -114 30 -144 26 -25 36 -29 62 -24 55 11 1507 7
1528 -4 30 -16 50 -12 79 18 27 26 28 33 35 157 9 158 41 503 48 510 3 4 267
-153 286 -170 2 -2 -4 -27 -12 -56 -31 -102 -16 -170 47 -226 20 -18 52 -35
72 -39 19 -3 35 -10 35 -14 0 -5 12 -23 26 -40 31 -36 92 -70 128 -70 18 0 31
-11 51 -45 39 -67 96 -105 157 -105 51 0 110 20 139 46 16 14 22 12 68 -19 70
-48 112 -60 190 -55 78 6 135 32 179 82 17 20 39 36 49 36 57 1 137 65 161
131 7 17 22 29 51 37 82 25 140 103 141 190 0 37 5 47 42 80 22 20 51 59 64
86 23 49 26 51 153 112 l130 62 5 -51 c7 -64 23 -273 36 -471 10 -159 16 -178
67 -191 38 -9 80 12 92 47 11 31 8 81 -30 538 -12 140 -25 265 -30 277 -4 12
-20 30 -34 39 -33 21 -46 17 -227 -69 l-136 -65 -13 51 c-20 89 -97 232 -164
305 l-33 38 186 144 c102 80 230 180 283 222 l97 77 88 -29 c150 -48 276 -64
444 -57 209 9 333 40 529 133 l100 47 78 -49 c92 -57 232 -194 292 -284 177
-270 272 -636 287 -1100 3 -107 10 -207 15 -221 10 -26 45 -49 74 -49 7 0 27
12 44 26 l31 26 0 106 c-1 715 -205 1273 -575 1571 -41 33 -82 64 -90 68 -12
7 1 26 68 94 54 56 95 109 120 157 33 63 42 72 66 72 15 0 52 7 82 16 273 80
426 421 299 667 -27 51 -30 67 -30 145 0 48 -5 116 -10 152 -15 93 -66 252
-111 347 -21 45 -39 84 -39 87 0 3 29 6 65 6 110 0 167 40 151 104 -9 38 -54
56 -137 56 l-72 0 7 90 c7 87 7 90 -18 115 -32 32 -75 33 -105 2 -18 -20 -41
-103 -41 -151 0 -4 -35 27 -77 71 -100 101 -191 169 -323 237 -190 98 -384
146 -589 146 -304 0 -561 -95 -765 -280 -55 -51 -57 -52 -102 -45 -24 3 -70
15 -101 26 -62 21 -96 17 -118 -14 -18 -25 -20 -80 -4 -110 6 -12 29 -41 52
-64 l40 -42 -43 -48 c-103 -118 -209 -307 -265 -476 -52 -158 -68 -279 -62
-470 5 -182 28 -291 90 -436 76 -175 238 -372 404 -493 46 -33 83 -64 83 -68
0 -15 -156 -140 -449 -360 l-84 -63 -66 24 c-86 31 -247 34 -329 6 -49 -18
-56 -18 -93 -3 -52 21 -198 21 -270 0 -30 -9 -91 -36 -137 -60 l-83 -45 -242
149 c-133 81 -242 153 -242 159 0 7 36 30 80 52 44 22 119 69 166 105 306 231
465 579 446 976 -15 297 -119 554 -319 788 l-55 64 -12 221 c-7 122 -18 320
-26 441 -14 208 -16 220 -40 252 -49 65 -62 66 -395 49z m264 -217 c14 -143
37 -580 32 -585 -3 -3 -30 10 -59 29 -29 20 -72 45 -95 57 -41 21 -42 22 -42
75 0 62 -21 140 -46 167 -31 35 -73 25 -123 -30 -63 -68 -103 -78 -236 -60
-154 21 -331 17 -445 -11 -243 -58 -440 -169 -615 -345 -217 -217 -342 -496
-362 -800 -4 -76 -11 -107 -26 -128 -33 -48 -57 -142 -57 -226 0 -141 54 -265
156 -360 72 -68 147 -102 239 -109 60 -4 60 -4 90 -54 17 -27 58 -77 93 -110
l63 -61 -88 -91 c-49 -50 -106 -114 -126 -142 l-37 -51 -77 -7 c-43 -3 -169
-9 -280 -12 -169 -6 -203 -5 -207 7 -5 14 -30 387 -61 924 -8 143 -29 471 -46
729 -16 257 -29 470 -27 471 2 2 98 8 214 13 227 11 253 17 293 68 37 47 39
78 21 349 -10 143 -16 263 -14 266 2 3 77 9 166 13 251 10 1003 45 1293 60
143 7 292 14 332 15 l71 1 6 -62z m2881 -195 c338 -65 642 -305 809 -641 61
-121 99 -240 114 -350 9 -62 8 -63 -12 -58 -135 37 -287 -3 -376 -101 -48 -51
-52 -88 -15 -123 37 -35 76 -30 126 14 54 49 96 66 164 66 78 0 141 -34 171
-92 79 -152 -19 -391 -188 -459 -30 -12 -72 -18 -136 -18 -85 -1 -95 -3 -117
-26 -29 -28 -31 -56 -8 -95 15 -26 15 -30 -6 -63 -12 -19 -53 -64 -91 -100
-215 -203 -480 -308 -777 -308 -300 0 -544 98 -763 308 -377 360 -422 943
-108 1419 64 98 182 235 220 255 16 9 30 0 93 -59 87 -81 232 -159 360 -194
68 -19 107 -22 265 -22 214 0 293 13 408 70 84 41 102 66 83 113 -22 52 -56
57 -157 22 -114 -39 -198 -52 -338 -52 -160 0 -302 36 -425 107 -46 27 -171
140 -171 155 0 4 40 35 90 68 252 169 497 220 785 164z m-4890 -194 c4 -78 3
-139 -2 -142 -5 -3 -80 -9 -168 -13 l-159 -7 21 29 c12 16 81 101 154 189
l134 160 6 -40 c4 -22 10 -101 14 -176z m1425 -124 c108 -16 230 -51 230 -66
0 -37 -104 -191 -177 -260 -157 -151 -331 -226 -567 -244 -103 -8 -136 -29
-136 -86 0 -34 32 -79 57 -79 9 0 6 -15 -11 -54 -37 -83 -97 -165 -170 -234
l-66 -62 -41 41 c-23 23 -66 53 -98 68 -49 23 -69 26 -157 26 l-102 0 5 35
c12 76 56 210 98 298 61 127 134 230 232 328 243 242 556 342 903 289z m557
-242 c198 -148 348 -378 420 -641 23 -85 26 -117 27 -262 1 -193 -15 -271 -89
-427 -53 -113 -89 -166 -172 -254 -225 -238 -552 -359 -889 -328 -205 19 -366
75 -530 184 -83 55 -204 167 -204 188 0 6 7 18 16 28 26 29 21 79 -10 106 -34
29 -59 29 -104 1 -32 -20 -40 -20 -105 -10 -85 13 -138 46 -185 116 -90 135
-79 324 24 402 27 21 50 29 95 32 76 6 102 -2 147 -42 69 -62 96 -68 137 -33
20 17 27 32 27 60 0 20 4 37 8 37 17 0 113 96 155 155 25 34 58 91 75 127 l31
65 107 6 c175 8 328 59 481 161 138 92 283 251 346 380 l28 56 46 -26 c25 -15
78 -52 118 -81z m-998 -2013 c52 -17 133 -37 180 -46 113 -20 315 -19 439 2
l98 16 124 -80 c69 -44 199 -126 290 -182 91 -57 186 -117 212 -133 57 -36 73
-33 153 28 33 25 84 54 113 65 54 20 162 38 162 26 0 -3 -34 -41 -75 -83 -94
-95 -128 -162 -129 -247 -1 -82 31 -142 94 -173 81 -42 180 -24 295 52 38 25
72 45 76 45 17 0 376 -299 397 -330 27 -41 28 -54 2 -80 -28 -28 -62 -13 -125
55 -62 65 -96 77 -131 44 -35 -33 -31 -69 14 -126 21 -26 46 -54 55 -62 23
-19 22 -68 -2 -81 -38 -20 -61 -10 -115 46 -46 49 -57 55 -86 52 -41 -4 -75
-45 -67 -80 4 -14 25 -45 47 -71 l40 -46 -22 -15 c-35 -25 -70 -19 -136 24
-60 39 -61 40 -50 70 14 41 -5 110 -41 144 -29 27 -89 56 -119 56 -12 0 -24
12 -33 31 -29 72 -90 119 -153 119 -29 0 -38 5 -50 28 -32 61 -101 102 -175
102 -50 0 -87 20 -341 185 -19 13 -120 76 -225 140 -104 65 -211 130 -236 146
-56 36 -92 37 -124 4 -30 -29 -32 -64 -6 -97 11 -13 87 -66 170 -117 83 -52
151 -95 151 -95 0 -1 -9 -87 -19 -191 -27 -262 -44 -512 -37 -545 l5 -28 -720
0 c-665 0 -720 1 -713 17 4 9 10 99 15 201 9 215 21 319 54 486 70 348 211
620 408 785 l67 56 87 -43 c49 -24 130 -57 182 -74z m2286 -329 c105 -52 178
-127 232 -239 40 -82 47 -105 50 -171 5 -85 -16 -144 -52 -149 -14 -2 -65 34
-155 108 -176 146 -300 240 -314 240 -7 0 -48 -23 -91 -51 -169 -107 -235
-116 -235 -32 0 51 19 79 117 174 80 79 151 127 223 150 53 18 157 3 225 -30z
m-969 -655 c19 -15 18 -16 -8 -63 -34 -61 -52 -73 -74 -51 -19 19 -15 47 16
96 22 35 36 39 66 18z m198 -128 c19 -32 -52 -138 -93 -138 -36 0 -44 34 -21
80 39 77 87 101 114 58z m174 -134 c33 -23 29 -65 -12 -108 -38 -41 -54 -44
-86 -18 -29 24 -22 57 21 107 35 39 45 42 77 19z"/>
<path d="M7282 7405 c-3 -127 52 -292 138 -412 50 -71 146 -171 155 -162 3 3
-12 20 -34 37 -124 100 -233 322 -250 512 -8 80 -8 81 -9 25z"/>
<path d="M6045 6956 c-103 -45 -129 -226 -44 -302 52 -46 115 -34 165 31 54
71 43 218 -19 258 -35 22 -70 27 -102 13z"/>
<path d="M6759 6863 c-94 -80 -92 -248 5 -296 47 -24 79 -16 127 31 55 56 74
146 45 216 -32 76 -116 100 -177 49z"/>
<path d="M6066 6389 c-19 -15 -26 -30 -26 -55 0 -50 20 -82 94 -151 88 -82
149 -106 276 -107 118 0 204 26 288 89 85 62 117 123 96 180 -7 17 -54 45 -78
45 -8 0 -44 -28 -78 -63 -51 -50 -75 -67 -122 -81 -122 -39 -255 1 -324 97
-31 42 -64 67 -91 67 -5 0 -20 -9 -35 -21z"/>
<path d="M4159 6819 c-68 -73 -62 -231 12 -283 55 -38 137 -8 165 60 21 49 18
138 -6 184 -25 50 -55 70 -103 70 -31 0 -45 -7 -68 -31z"/>
<path d="M3476 6759 c-39 -31 -56 -71 -56 -136 1 -143 104 -229 189 -157 79
66 60 253 -29 299 -40 21 -73 19 -104 -6z"/>
<path d="M3157 6420 c-140 -42 -191 -239 -91 -350 121 -134 342 -64 370 116
22 151 -130 279 -279 234z m125 -10 c104 -29 165 -146 134 -254 -38 -130 -191
-186 -304 -111 -59 39 -84 90 -83 171 0 70 14 105 59 147 52 50 123 66 194 47z"/>
<path d="M4173 6281 c-16 -16 -43 -48 -61 -70 -44 -52 -105 -81 -189 -88 -95
-8 -163 13 -231 72 -60 50 -78 54 -116 24 -20 -16 -26 -29 -26 -60 0 -34 7
-46 45 -85 153 -152 437 -153 603 -1 54 50 102 122 102 153 0 30 -38 72 -72
80 -22 5 -33 0 -55 -25z"/>
<path d="M4496 4954 c-31 -65 -69 -122 -133 -201 -25 -30 -43 -57 -40 -59 12
-13 161 198 191 271 25 60 12 52 -18 -11z"/>
<path d="M7382 5063 c-7 -3 -19 -17 -27 -33 -13 -25 -12 -40 11 -146 54 -254
87 -524 97 -785 l2 -77 -549 -1 c-302 -1 -552 -3 -555 -6 -2 -3 248 -5 558 -5
489 1 565 -1 584 -15 27 -19 48 -19 73 0 15 12 64 14 263 15 134 0 242 2 240
4 -3 3 -108 6 -234 7 l-230 1 -1 137 c-3 277 -90 837 -139 891 -17 19 -63 25
-93 13z"/>
<path d="M4281 3551 c-21 -14 -7 -1079 15 -1101 21 -21 164 -21 189 0 17 14
17 43 11 550 -7 476 -9 536 -24 548 -18 14 -169 17 -191 3z m187 -16 c6 -6 13
-236 16 -536 6 -447 5 -527 -7 -537 -22 -19 -154 -20 -171 -2 -11 12 -15 114
-20 547 l-6 532 27 3 c52 8 152 3 161 -7z"/>
<path d="M1677 3528 c-13 -10 -261 -652 -382 -987 -35 -97 -31 -101 84 -101
64 0 103 4 115 13 10 7 32 54 50 105 l32 92 216 2 c119 2 219 0 222 -3 4 -3
21 -48 39 -100 31 -87 36 -95 68 -106 37 -13 120 -15 159 -4 22 6 25 13 23 47
-1 21 -38 136 -83 254 -45 118 -113 298 -152 400 -39 102 -84 221 -100 264
-33 90 -46 118 -62 128 -19 13 -211 9 -229 -4z m225 -10 c27 -21 404 -1028
395 -1052 -9 -22 -178 -23 -196 -2 -6 7 -22 46 -36 86 -44 130 -22 120 -270
120 -248 0 -225 10 -265 -115 -33 -103 -36 -105 -147 -105 -90 0 -93 1 -93 23
0 12 27 94 61 182 33 88 69 183 79 210 133 362 243 642 257 653 11 7 51 12
108 12 58 0 97 -5 107 -12z"/>
<path d="M1775 3258 c-2 -7 -36 -101 -75 -209 -38 -108 -70 -201 -70 -208 0
-13 316 -16 324 -3 5 8 -123 372 -144 413 -12 22 -29 25 -35 7z m97 -205 l75
-208 -150 -3 c-82 -1 -151 -1 -153 1 -2 2 28 91 66 198 38 106 70 200 70 207
0 41 25 -12 92 -195z"/>
<path d="M5570 3522 c-20 -17 -22 -35 -50 -482 -37 -577 -37 -574 -8 -594 30
-21 145 -22 174 -1 21 14 22 25 28 307 4 161 9 318 13 348 3 31 2 51 -3 47 -5
-5 -14 -159 -20 -343 -7 -212 -15 -339 -22 -346 -17 -17 -162 -14 -173 3 -11
18 -11 40 1 234 6 88 19 306 30 485 12 179 25 329 29 333 15 15 184 18 210 4
18 -10 49 -81 155 -357 110 -286 136 -345 152 -345 21 0 32 25 140 315 132
353 144 381 170 390 34 13 184 4 199 -12 9 -9 21 -147 40 -423 15 -225 30
-455 35 -510 10 -127 7 -130 -96 -130 -61 0 -78 3 -88 18 -10 12 -15 94 -21
295 -8 326 -14 397 -34 397 -8 0 -50 -93 -113 -250 -54 -137 -111 -279 -126
-315 l-28 -65 -64 -8 c-38 -5 -73 -4 -85 1 -13 6 -31 37 -49 83 -90 235 -210
535 -218 544 -12 13 20 -76 81 -228 29 -70 75 -187 102 -260 27 -73 57 -138
66 -144 27 -21 149 -17 171 5 9 9 71 156 137 324 66 169 123 308 126 308 8 0
16 -162 25 -458 5 -155 11 -227 20 -240 10 -14 28 -17 98 -17 126 0 121 -11
102 231 -9 109 -25 343 -37 519 -25 385 -12 358 -162 353 -76 -2 -101 -7 -110
-19 -7 -9 -70 -170 -142 -358 -71 -188 -134 -340 -139 -338 -11 4 -26 40 -136
327 -142 374 -139 366 -166 379 -14 6 -62 11 -108 11 -65 0 -89 -4 -106 -18z"/>
<path d="M7770 3471 c-31 -8 -37 -35 -39 -153 l-1 -88 -59 0 c-59 0 -59 0 -71
-36 -14 -42 -7 -113 12 -126 7 -4 38 -7 68 -6 l55 2 0 -230 c0 -194 3 -235 17
-267 28 -61 56 -95 104 -123 37 -22 58 -26 117 -27 77 0 140 15 171 42 15 13
17 26 13 73 -3 31 -8 61 -11 66 -3 6 -24 5 -55 0 -62 -13 -99 3 -123 52 -15
30 -18 64 -18 228 l0 192 100 0 101 0 -3 78 -3 77 -95 5 -95 5 -5 115 c-5 111
-6 114 -30 121 -32 9 -118 9 -150 0z m157 -16 c9 -3 13 -39 15 -117 l3 -113
95 -5 95 -5 3 -67 3 -67 -98 -3 -98 -3 -3 -198 c-2 -168 0 -203 14 -233 23
-49 64 -68 130 -60 l52 6 7 -45 c8 -58 1 -79 -33 -95 -39 -19 -172 -25 -217
-10 -53 18 -99 62 -125 121 -20 48 -22 65 -21 272 1 152 -2 224 -10 233 -7 9
-32 14 -69 14 -65 0 -69 6 -60 90 l5 45 57 3 c31 2 61 9 67 16 6 6 12 59 13
117 l3 104 45 6 c42 5 98 3 127 -6z"/>
<path d="M2785 3253 c-43 -9 -102 -36 -134 -61 -27 -20 -36 -23 -39 -12 -3 8
-16 24 -28 37 -22 22 -31 24 -101 21 l-78 -3 -3 -551 c-2 -504 -1 -553 14
-565 11 -9 44 -14 96 -14 113 0 111 -4 105 218 -2 97 -2 177 0 177 2 0 19 -11
36 -24 123 -93 337 -68 451 54 88 94 121 198 114 351 -7 131 -33 196 -113 276
-52 51 -72 64 -129 82 -63 19 -142 25 -191 14z m187 -23 c56 -16 129 -71 165
-124 120 -177 87 -471 -67 -595 -116 -93 -286 -105 -407 -29 -25 16 -50 25
-54 21 -5 -5 -10 -92 -11 -193 l-3 -185 -90 0 -90 0 0 550 0 550 72 3 c71 3
71 3 98 -33 30 -38 46 -43 66 -19 51 62 203 87 321 54z"/>
<path d="M2722 3069 c-88 -44 -139 -147 -129 -262 17 -191 201 -281 335 -163
43 38 69 94 78 168 23 192 -132 332 -284 257z m139 0 c104 -35 159 -167 125
-300 -26 -100 -78 -151 -170 -166 -70 -11 -149 36 -188 111 -26 49 -30 159 -9
219 18 52 67 106 116 128 47 22 79 23 126 8z"/>
<path d="M3686 3241 c-32 -11 -76 -34 -97 -51 -22 -17 -39 -27 -39 -21 0 5
-12 23 -26 40 -25 30 -29 31 -104 31 -43 0 -80 -4 -82 -10 -1 -5 -2 -257 0
-559 l2 -549 32 -11 c64 -22 158 -10 180 23 9 14 8 151 -2 271 -6 78 -7 65 -7
-88 0 -123 -4 -182 -12 -190 -12 -12 -152 -14 -171 -2 -6 4 -10 205 -10 556
l0 549 70 0 c73 0 76 -2 118 -59 l18 -23 31 26 c60 51 120 70 213 70 96 0 167
-25 232 -83 162 -142 157 -495 -9 -641 -115 -101 -317 -117 -432 -34 l-36 26
32 -31 c58 -54 178 -75 293 -50 66 14 162 79 202 136 120 176 107 450 -29 589
-90 92 -240 127 -367 85z"/>
<path d="M7060 3246 c-104 -28 -191 -94 -208 -158 -12 -44 0 -65 46 -78 65
-18 94 -13 127 21 98 104 285 63 285 -62 l0 -39 -97 0 c-296 -1 -425 -79 -425
-260 0 -147 100 -238 274 -248 97 -6 168 11 224 54 27 21 44 29 44 20 0 -7 9
-25 21 -40 18 -23 27 -26 82 -26 34 0 68 4 75 9 11 6 13 68 10 307 l-3 299
-28 57 c-36 72 -84 113 -166 138 -72 23 -191 26 -261 6z m261 -16 c86 -25 150
-94 174 -186 12 -49 15 -113 13 -330 l-3 -269 -48 -3 c-73 -5 -95 3 -112 44
-15 35 -16 36 -37 20 -59 -43 -87 -56 -138 -67 -127 -26 -283 21 -338 103 -38
58 -44 167 -12 233 46 95 136 131 351 141 161 8 169 12 150 76 -39 129 -195
152 -308 46 -28 -28 -36 -30 -74 -24 -82 13 -98 40 -59 103 35 58 122 108 220
127 38 7 180 -1 221 -14z"/>
<path d="M7190 2799 c-128 -6 -157 -15 -190 -56 -47 -60 7 -162 96 -179 57
-10 135 18 177 65 49 54 74 147 45 167 -7 5 -65 6 -128 3z m118 -62 c-3 -34
-12 -64 -27 -84 -73 -98 -237 -102 -278 -6 -39 96 27 142 206 143 l103 0 -4
-53z"/>
<path d="M8500 3244 c-85 -23 -134 -50 -185 -105 -195 -209 -127 -593 123
-690 86 -34 256 -39 334 -10 72 28 138 78 163 126 l20 37 -30 24 c-16 13 -47
29 -69 35 -35 9 -41 8 -65 -15 -80 -77 -245 -74 -318 5 -24 26 -53 89 -53 114
0 13 33 15 258 15 208 0 262 3 278 14 16 12 19 26 18 93 0 43 -8 103 -17 133
-20 65 -76 143 -132 182 -78 55 -212 72 -325 42z m275 -28 c65 -29 117 -83
152 -155 22 -46 28 -74 31 -153 3 -76 1 -99 -9 -103 -8 -3 -129 -7 -270 -8
-140 -2 -261 -7 -267 -11 -6 -3 -9 -12 -7 -19 2 -7 6 -24 9 -39 7 -31 53 -88
97 -118 15 -11 53 -25 83 -31 68 -12 124 0 183 42 46 32 71 36 112 15 47 -25
53 -38 31 -74 -46 -76 -168 -132 -285 -132 -164 0 -281 52 -353 157 -111 162
-76 459 68 572 47 37 137 74 205 85 62 9 169 -4 220 -28z"/>
<path d="M8540 3099 c-38 -15 -79 -59 -106 -111 -27 -53 -28 -58 -14 -58 6 0
10 8 10 18 0 10 13 39 29 65 89 139 292 103 318 -56 l6 -37 -182 -3 -181 -3
182 1 183 0 3 27 c6 47 -45 125 -100 154 -31 16 -111 18 -148 3z"/>
<path d="M4615 3230 c-4 -6 -4 -23 0 -38 6 -27 94 -257 221 -580 l65 -165 -56
-145 c-59 -156 -63 -173 -40 -192 21 -17 160 -9 179 10 8 8 110 260 227 558
174 446 210 545 198 553 -8 5 -52 8 -97 7 -105 -4 -106 -5 -165 -181 -25 -72
-66 -190 -92 -262 -25 -71 -42 -125 -36 -120 6 6 49 123 97 260 48 138 93 258
102 268 20 23 182 26 182 3 0 -8 -52 -146 -115 -307 -64 -162 -156 -397 -206
-524 -49 -126 -96 -236 -103 -244 -32 -31 -176 -26 -176 7 0 9 25 80 55 157
30 77 55 144 55 150 0 5 -52 143 -115 305 -136 348 -177 459 -170 469 5 9 144
6 173 -3 24 -8 23 -6 119 -304 43 -133 79 -238 81 -233 2 6 -19 79 -46 163
-28 84 -64 199 -82 254 -17 58 -40 110 -51 120 -17 15 -41 20 -109 22 -59 3
-90 0 -95 -8z"/>
<path d="M3659 3067 c-104 -55 -153 -192 -115 -321 56 -186 288 -213 371 -42
107 221 -64 464 -256 363z m142 2 c79 -27 131 -111 133 -217 3 -162 -96 -268
-231 -247 -53 8 -105 50 -135 109 -25 49 -30 160 -9 219 18 52 67 106 116 128
47 22 79 23 126 8z"/>
</g>
</svg>
