<svg version="1.0" xmlns="http://www.w3.org/2000/svg" width="1365.333" height="1365.333" viewBox="0 0 1024 1024"><defs><linearGradient id="prefix__a" x1="0%" y1="0%" x2="100%" y2="100%"><stop offset="0%" stop-color="#ff6b35"/><stop offset="100%" stop-color="#e55a2b"/></linearGradient><linearGradient id="prefix__b" x1="0%" y1="0%" x2="100%" y2="100%"><stop offset="0%" stop-color="#ff8c42"/><stop offset="100%" stop-color="#ff6b35"/></linearGradient></defs><g xmlns="http://www.w3.org/2000/svg" transform="matrix(.1 0 0 -.1 0 1024)" fill="url(#prefix__a)"><path d="M3940 8435c-281-15-727-36-1300-61-296-12-382-19-409-32-23-10-103-99-250-276-298-358-319-386-326-416-3-14 12-309 34-655 22-347 54-859 71-1140 16-280 33-526 36-545 8-45 70-106 116-113 18-2 138-1 267 4 128 5 236 8 238 6 2-3-13-44-33-93-104-253-164-594-164-942 0-113 0-114 30-144 26-25 36-29 62-24 55 11 1507 7 1528-4 30-16 50-12 79 18 27 26 28 33 35 157 9 158 41 503 48 510 3 4 267-153 286-170 2-2-4-27-12-56-31-102-16-170 47-226 20-18 52-35 72-39 19-3 35-10 35-14 0-5 12-23 26-40 31-36 92-70 128-70 18 0 31-11 51-45 39-67 96-105 157-105 51 0 110 20 139 46 16 14 22 12 68-19 70-48 112-60 190-55 78 6 135 32 179 82 17 20 39 36 49 36 57 1 137 65 161 131 7 17 22 29 51 37 82 25 140 103 141 190 0 37 5 47 42 80 22 20 51 59 64 86 23 49 26 51 153 112l130 62 5-51c7-64 23-273 36-471 10-159 16-178 67-191 38-9 80 12 92 47 11 31 8 81-30 538-12 140-25 265-30 277-4 12-20 30-34 39-33 21-46 17-227-69l-136-65-13 51c-20 89-97 232-164 305l-33 38 186 144c102 80 230 180 283 222l97 77 88-29c150-48 276-64 444-57 209 9 333 40 529 133l100 47 78-49c92-57 232-194 292-284 177-270 272-636 287-1100 3-107 10-207 15-221 10-26 45-49 74-49 7 0 27 12 44 26l31 26v106c-1 715-205 1273-575 1571-41 33-82 64-90 68-12 7 1 26 68 94 54 56 95 109 120 157 33 63 42 72 66 72 15 0 52 7 82 16 273 80 426 421 299 667-27 51-30 67-30 145 0 48-5 116-10 152-15 93-66 252-111 347-21 45-39 84-39 87s29 6 65 6c110 0 167 40 151 104-9 38-54 56-137 56h-72l7 90c7 87 7 90-18 115-32 32-75 33-105 2-18-20-41-103-41-151 0-4-35 27-77 71-100 101-191 169-323 237-190 98-384 146-589 146-304 0-561-95-765-280-55-51-57-52-102-45-24 3-70 15-101 26-62 21-96 17-118-14-18-25-20-80-4-110 6-12 29-41 52-64l40-42-43-48c-103-118-209-307-265-476-52-158-68-279-62-470 5-182 28-291 90-436 76-175 238-372 404-493 46-33 83-64 83-68 0-15-156-140-449-360l-84-63-66 24c-86 31-247 34-329 6-49-18-56-18-93-3-52 21-198 21-270 0-30-9-91-36-137-60l-83-45-242 149c-133 81-242 153-242 159 0 7 36 30 80 52s119 69 166 105c306 231 465 579 446 976-15 297-119 554-319 788l-55 64-12 221c-7 122-18 320-26 441-14 208-16 220-40 252-49 65-62 66-395 49zm264-217c14-143 37-580 32-585-3-3-30 10-59 29-29 20-72 45-95 57-41 21-42 22-42 75 0 62-21 140-46 167-31 35-73 25-123-30-63-68-103-78-236-60-154 21-331 17-445-11-243-58-440-169-615-345-217-217-342-496-362-800-4-76-11-107-26-128-33-48-57-142-57-226 0-141 54-265 156-360 72-68 147-102 239-109 60-4 60-4 90-54 17-27 58-77 93-110l63-61-88-91c-49-50-106-114-126-142l-37-51-77-7c-43-3-169-9-280-12-169-6-203-5-207 7-5 14-30 387-61 924-8 143-29 471-46 729-16 257-29 470-27 471 2 2 98 8 214 13 227 11 253 17 293 68 37 47 39 78 21 349-10 143-16 263-14 266s77 9 166 13c251 10 1003 45 1293 60 143 7 292 14 332 15l71 1 6-62zm2881-195c338-65 642-305 809-641 61-121 99-240 114-350 9-62 8-63-12-58-135 37-287-3-376-101-48-51-52-88-15-123s76-30 126 14c54 49 96 66 164 66 78 0 141-34 171-92 79-152-19-391-188-459-30-12-72-18-136-18-85-1-95-3-117-26-29-28-31-56-8-95 15-26 15-30-6-63-12-19-53-64-91-100-215-203-480-308-777-308-300 0-544 98-763 308-377 360-422 943-108 1419 64 98 182 235 220 255 16 9 30 0 93-59 87-81 232-159 360-194 68-19 107-22 265-22 214 0 293 13 408 70 84 41 102 66 83 113-22 52-56 57-157 22-114-39-198-52-338-52-160 0-302 36-425 107-46 27-171 140-171 155 0 4 40 35 90 68 252 169 497 220 785 164zm-4890-194c4-78 3-139-2-142s-80-9-168-13l-159-7 21 29c12 16 81 101 154 189l134 160 6-40c4-22 10-101 14-176zm1425-124c108-16 230-51 230-66 0-37-104-191-177-260-157-151-331-226-567-244-103-8-136-29-136-86 0-34 32-79 57-79 9 0 6-15-11-54-37-83-97-165-170-234l-66-62-41 41c-23 23-66 53-98 68-49 23-69 26-157 26h-102l5 35c12 76 56 210 98 298 61 127 134 230 232 328 243 242 556 342 903 289zm557-242c198-148 348-378 420-641 23-85 26-117 27-262 1-193-15-271-89-427-53-113-89-166-172-254-225-238-552-359-889-328-205 19-366 75-530 184-83 55-204 167-204 188 0 6 7 18 16 28 26 29 21 79-10 106-34 29-59 29-104 1-32-20-40-20-105-10-85 13-138 46-185 116-90 135-79 324 24 402 27 21 50 29 95 32 76 6 102-2 147-42 69-62 96-68 137-33 20 17 27 32 27 60 0 20 4 37 8 37 17 0 113 96 155 155 25 34 58 91 75 127l31 65 107 6c175 8 328 59 481 161 138 92 283 251 346 380l28 56 46-26c25-15 78-52 118-81zm-998-2013c52-17 133-37 180-46 113-20 315-19 439 2l98 16 124-80c69-44 199-126 290-182 91-57 186-117 212-133 57-36 73-33 153 28 33 25 84 54 113 65 54 20 162 38 162 26 0-3-34-41-75-83-94-95-128-162-129-247-1-82 31-142 94-173 81-42 180-24 295 52 38 25 72 45 76 45 17 0 376-299 397-330 27-41 28-54 2-80-28-28-62-13-125 55-62 65-96 77-131 44s-31-69 14-126c21-26 46-54 55-62 23-19 22-68-2-81-38-20-61-10-115 46-46 49-57 55-86 52-41-4-75-45-67-80 4-14 25-45 47-71l40-46-22-15c-35-25-70-19-136 24-60 39-61 40-50 70 14 41-5 110-41 144-29 27-89 56-119 56-12 0-24 12-33 31-29 72-90 119-153 119-29 0-38 5-50 28-32 61-101 102-175 102-50 0-87 20-341 185-19 13-120 76-225 140-104 65-211 130-236 146-56 36-92 37-124 4-30-29-32-64-6-97 11-13 87-66 170-117 83-52 151-95 151-95 0-1-9-87-19-191-27-262-44-512-37-545l5-28h-720c-665 0-720 1-713 17 4 9 10 99 15 201 9 215 21 319 54 486 70 348 211 620 408 785l67 56 87-43c49-24 130-57 182-74zm2286-329c105-52 178-127 232-239 40-82 47-105 50-171 5-85-16-144-52-149-14-2-65 34-155 108-176 146-300 240-314 240-7 0-48-23-91-51-169-107-235-116-235-32 0 51 19 79 117 174 80 79 151 127 223 150 53 18 157 3 225-30zm-969-655c19-15 18-16-8-63-34-61-52-73-74-51-19 19-15 47 16 96 22 35 36 39 66 18zm198-128c19-32-52-138-93-138-36 0-44 34-21 80 39 77 87 101 114 58zm174-134c33-23 29-65-12-108-38-41-54-44-86-18-29 24-22 57 21 107 35 39 45 42 77 19z"/><path d="M7282 7405c-3-127 52-292 138-412 50-71 146-171 155-162 3 3-12 20-34 37-124 100-233 322-250 512-8 80-8 81-9 25zM6045 6956c-103-45-129-226-44-302 52-46 115-34 165 31 54 71 43 218-19 258-35 22-70 27-102 13zM6759 6863c-94-80-92-248 5-296 47-24 79-16 127 31 55 56 74 146 45 216-32 76-116 100-177 49zM6066 6389c-19-15-26-30-26-55 0-50 20-82 94-151 88-82 149-106 276-107 118 0 204 26 288 89 85 62 117 123 96 180-7 17-54 45-78 45-8 0-44-28-78-63-51-50-75-67-122-81-122-39-255 1-324 97-31 42-64 67-91 67-5 0-20-9-35-21zM4159 6819c-68-73-62-231 12-283 55-38 137-8 165 60 21 49 18 138-6 184-25 50-55 70-103 70-31 0-45-7-68-31zM3476 6759c-39-31-56-71-56-136 1-143 104-229 189-157 79 66 60 253-29 299-40 21-73 19-104-6zM3157 6420c-140-42-191-239-91-350 121-134 342-64 370 116 22 151-130 279-279 234zm125-10c104-29 165-146 134-254-38-130-191-186-304-111-59 39-84 90-83 171 0 70 14 105 59 147 52 50 123 66 194 47zM4173 6281c-16-16-43-48-61-70-44-52-105-81-189-88-95-8-163 13-231 72-60 50-78 54-116 24-20-16-26-29-26-60 0-34 7-46 45-85 153-152 437-153 603-1 54 50 102 122 102 153 0 30-38 72-72 80-22 5-33 0-55-25zM4496 4954c-31-65-69-122-133-201-25-30-43-57-40-59 12-13 161 198 191 271 25 60 12 52-18-11zM7382 5063c-7-3-19-17-27-33-13-25-12-40 11-146 54-254 87-524 97-785l2-77-549-1c-302-1-552-3-555-6-2-3 248-5 558-5 489 1 565-1 584-15 27-19 48-19 73 0 15 12 64 14 263 15 134 0 242 2 240 4-3 3-108 6-234 7l-230 1-1 137c-3 277-90 837-139 891-17 19-63 25-93 13z" fill="url(#prefix__b)"/></g></svg>